<?xml version="1.0" encoding="UTF-8" standalone="no"?><!DOCTYPE svg PUBLIC "-//W3C//DTD SVG 1.1//EN" "http://www.w3.org/Graphics/SVG/1.1/DTD/svg11.dtd"><svg width="100%" height="100%" viewBox="0 0 346 290" version="1.1" xmlns="http://www.w3.org/2000/svg" xmlns:xlink="http://www.w3.org/1999/xlink" xml:space="preserve" xmlns:serif="http://www.serif.com/" style="fill-rule:evenodd;clip-rule:evenodd;stroke-linejoin:round;stroke-miterlimit:2;"><rect id="ArtBoard1" x="0" y="0" width="345.132" height="290.041" style="fill:none;"/><path d="M219.497,184.936c0.355,-1.918 3.033,-9.993 4.942,-13.903c1.91,-3.912 6.867,-15.232 8.746,-19.022c1.698,-3.427 8.522,-17.08 10.179,-20.17c1.821,-3.395 7.723,-14.72 11.651,-21.155c0.847,-1.387 3.553,-6.493 5.114,-7.175c0.916,-0.4 1.855,0.107 1.947,1.381c0.076,1.056 -3.086,5.521 -4.797,8.285c-3.043,4.916 -8.447,14.751 -11.656,20.747c-1.099,2.052 -8.279,16.151 -9.188,17.695c-0.909,1.545 -8.475,18.232 -9.454,20.438c-0.698,1.571 -3.518,7.557 -4.451,11.985c-0.293,1.393 -0.763,2.865 0.618,4.597c1.27,1.594 2.653,0.89 3.313,0.798c1.414,-0.197 1.787,1.915 0.423,2.473c-0.5,0.205 -1.084,0.382 -2.406,0.352c-2.731,-0.063 -5.694,-3.474 -4.981,-7.326Z"/><path d="M231.679,243.692c3.138,-5.693 7.368,-11.854 12.964,-13.137c5.696,-1.307 9.06,0.443 10.366,2.971c1.306,2.527 0.803,2.26 -0.065,2.692c-0.868,0.432 -1.387,-1.749 -3.396,-2.707c-2.009,-0.958 -7.028,-1.668 -11.17,2.858c-3.325,3.633 -4.805,5.379 -7.318,11.551c-1.895,4.654 -0.259,8.485 2.18,10.353c1.878,1.438 5.369,0.676 6.587,0.079c1.218,-0.598 4.083,-3.354 4.649,-3.382c0.566,-0.027 1.243,-0.159 0.952,0.886c-0.212,0.763 -2.693,3.807 -4.515,4.858c-1.771,1.023 -3.502,1.1 -5.492,0.944c-3.256,-0.256 -5.672,-1.916 -6.836,-4.634c-1.513,-3.53 -1.506,-5.867 -0.944,-8.026c0.561,-2.158 0.784,-3.031 2.038,-5.306Z"/><path d="M242.143,180.872c-0.229,3.573 -0.158,11.776 10.262,11.639c7.036,-0.092 9.202,-4.051 10.136,-3.986c0.468,0.032 -0.661,1.969 1.636,1.941c1.923,-0.024 1.612,-1.391 1.616,-1.945c0.005,-0.603 0.132,-7.443 0.602,-9.98c0.981,-5.287 3.994,-13.439 4.461,-14.75c0.467,-1.31 3.931,-10.703 5.381,-13.953c0.876,-1.963 5.104,-11.159 6.21,-13.559c1.513,-3.286 5.339,-10.608 6.287,-12.342c1.349,-2.466 4.236,-7.807 6.023,-10.59c1.213,-1.889 3.495,-5.101 3.592,-6.079c0.103,-1.036 -0.784,-1.981 -1.861,-1.477c-0.868,0.406 -5.548,8.022 -6.523,9.61c-3.034,4.944 -8.366,15.686 -9.238,17.399c-0.797,1.562 -7.795,17.244 -9.142,20.887c-1.314,3.554 -4.969,13.753 -5.572,15.504c-0.604,1.751 -0.804,4.043 -1.36,4.088c-0.742,0.059 -2.504,-4.249 -8.954,-4.4c-7.551,-0.176 -13.245,7.159 -13.556,11.993Zm3.033,0.763c-0.517,7.58 6.305,7.961 7.663,7.907c4.178,-0.165 9.726,-4.646 9.769,-9.458c0.041,-4.538 -3.502,-8.242 -6.945,-8.139c-5.061,0.152 -10.187,5.302 -10.487,9.69Z" style="fill:#231e1e;"/><path d="M194.917,229.037c-0.059,1.055 0.934,1.506 3.406,1.652c2.466,0.146 3.872,-0.493 4.064,0.113c0.208,0.656 -0.638,2.712 -1.233,3.865c-0.555,1.074 -4.424,10.006 -5.005,13.187c-0.585,3.198 -1.196,6.492 -0.108,9.571c1.027,2.907 2.132,3.485 4.031,3.436c3.188,-0.082 4.826,-1.593 6.385,-2.653c1.584,-1.078 2.623,-2.604 3.391,-2.739c1,-0.177 2.105,3.187 3.627,3.296c1.522,0.108 2.309,-0.021 3.037,-0.554c0.733,-0.536 1.419,-1.353 0.968,-1.934c-0.244,-0.315 -1.452,0.527 -2.651,0.08c-1.361,-0.508 -1.702,-1.358 -2.045,-1.912c-0.61,-0.982 0.035,-2.55 0.509,-3.656c0.718,-1.679 3.448,-8.753 3.957,-10.592c0.583,-2.107 4.787,-11.166 4.694,-11.57c-0.092,-0.404 -0.08,-0.624 -0.953,-1.111c-0.712,-0.397 -1.314,-0.11 -1.644,0.414c-0.331,0.525 -3.772,9.356 -4.142,10.379c-0.879,2.434 -1.96,5.121 -2.956,8.129c-1.453,4.389 -2.681,5.893 -4.624,7.81c-1.591,1.571 -6.29,4.512 -7.662,3.928c-1.725,-0.734 -1.974,-3.252 -1.932,-5.687c0.058,-3.382 1.839,-8.426 2.116,-9.368c0.349,-1.193 3.947,-8.348 4.109,-8.819c0.161,-0.469 1.213,-2.39 1.419,-3.462c0.199,-1.036 0.281,-1.922 -0.596,-2.538c-0.858,-0.603 -3.387,-0.384 -4.827,-0.421c-1.66,-0.043 -5.257,-0.247 -5.335,1.156Z"/><path d="M261.722,246.037c2.334,-4.592 8.024,-14.775 11.571,-21.247c3.074,-5.61 7.627,-13.59 11.112,-20.062c3.513,-6.525 7.645,-15.388 10.589,-20.44c2.912,-4.996 3.415,-6.251 8.486,-12.2c1.075,-1.261 2.706,-2.095 3.342,-1.474c0.57,0.558 0.687,1.212 -0.091,2.25c-0.779,1.038 -2.426,2.135 -3.935,3.985c-0.679,0.832 -3.086,4.858 -4.684,7.614c-5.234,9.029 -9.45,18.154 -11.219,21.576c-1.645,3.183 -10.022,18.192 -11.603,20.87c-1.704,2.886 -4.466,7.79 -5.425,9.384c-0.959,1.594 -1.141,2.223 -0.844,2.422c0.412,0.277 2.605,-1.147 7.053,-3.422c5.791,-2.962 7.98,-1.387 9.547,-0.109c1.753,1.428 1.38,5.846 -1.346,9.611c-2.725,3.765 -7.452,9.472 -9.132,11.89c-1.68,2.417 -5.492,8.385 -6.468,10.776c-0.977,2.391 -2.047,5.1 -2.02,6.504c0.03,1.497 0.059,1.962 -0.332,2.232c-0.41,0.283 -0.254,0.139 -1.337,0.098c-2.175,-0.083 -1.424,-0.495 -0.963,-3.045c0.705,-3.901 2.174,-8.359 6.134,-14.329c3.927,-5.919 6.223,-9.163 8.543,-11.793c2.621,-2.971 6.261,-7.052 5.033,-9.478c-1.541,-3.042 -6.12,-0.558 -7.473,0.127c-2.562,1.296 -5.912,2.815 -9.435,7.257c-3.522,4.442 -3.189,4.862 -4.328,6.84c-1.139,1.977 0.165,2.84 -2.252,2.487c-2.417,-0.354 -1.821,-1.051 -1.657,-1.935c0.164,-0.885 1.975,-4.111 3.134,-6.389Z"/><path d="M307.784,229.02c-2.347,0.846 -5.37,4.151 -5.416,6.687c-0.048,2.645 4.283,4.92 8.215,7.49c3.92,2.561 4.712,3.385 4.726,6.012c0.013,2.628 -1.062,6.089 -3.47,7.221c-2.981,1.402 -7.194,1.193 -9.543,0.952c-2.35,-0.241 -3.517,-1.466 -4.5,-2.865c-1.006,-1.432 -0.972,-2.192 -1.401,-3.208c-0.429,-1.016 -0.227,-2.558 -0.548,-2.901c-0.322,-0.342 -0.612,-0.535 -1.352,0.696c-0.739,1.23 -0.718,1.34 -0.449,2.951c0.269,1.612 0.95,3.421 3.163,5.674c1.949,1.985 3.64,2.506 7.272,2.683c3.433,0.166 5.787,-0.45 6.978,-0.898c1.191,-0.448 3.783,-1.979 4.88,-3.767c1.097,-1.789 1.587,-3.075 1.646,-5.015c0.058,-1.941 0.345,-4.942 -3.226,-7.905c-3.57,-2.963 -6.513,-3.809 -7.976,-5.23c-1.576,-1.53 -1.47,-2.155 -0.423,-3.658c1.028,-1.475 1.509,-2.105 3.887,-2.596c1.7,-0.352 2.738,0.022 4.025,1.12c1.243,1.06 1.118,1.144 1.175,2.612c0.028,0.712 0.654,1.061 1.834,0.46c1.179,-0.6 1.513,-0.808 0.241,-3.24c-0.854,-1.633 -2.582,-2.698 -3.995,-3.218c-1.438,-0.528 -3.763,-0.77 -5.743,-0.057Z"/><path d="M199.501,179.161c3.851,-6.684 5.459,-8.965 6.412,-10.802c0.874,-1.687 1.655,-3.147 0.732,-3.429c-1.041,-0.318 -1.766,-0.312 -3.409,-0.348c-1.358,-0.029 -0.443,-1.494 0.047,-2.298c0.54,-0.885 1.741,-0.94 3.403,-0.811c2.052,0.16 4.215,2.117 3.747,4.259c-0.436,1.997 -4.534,8.825 -6.434,11.914c-1.472,2.393 -3.102,5.043 -4.447,8.195c-0.903,2.116 -0.778,2.539 -0.411,2.748c0.867,0.493 2.329,0.16 2.998,0.121c0.58,-0.035 0.888,0.053 0.663,0.875c-0.225,0.823 -2.436,2.272 -4.427,2.47c-1.99,0.199 -3.019,-0.521 -2.95,-2.364c0.068,-1.843 2.509,-7.81 4.076,-10.53Z"/><path d="M150.747,259.972c-0.388,0.999 1.329,1.906 2.143,0.055c0.814,-1.852 2.343,-4.321 2.887,-3.767c0.544,0.554 -0.667,3.809 0.412,5.328c1.079,1.519 3.552,1.605 4.989,0.973c1.438,-0.631 3.584,-4.673 3.742,-5.868c0.157,-1.194 -0.171,-1.61 -1.634,0.164c-1.464,1.774 -0.995,2.134 -3.094,2.675c-2.099,0.541 -3.416,2.578 -2.357,-2.148c1.06,-4.726 1.131,-5.431 0.261,-6.394c-0.869,-0.964 -0.95,-0.465 -2.262,1.408c-1.311,1.873 -4.121,5.089 -5.087,7.574Z" style="fill:#231e1e;"/><path d="M218.222,125.443c0.398,-0.829 0.947,-1.797 2.534,-1.631c1.588,0.165 1.639,2.46 1.153,3.329c-0.493,0.884 -1.762,1.453 -2.839,0.949c-0.773,-0.362 -1.186,-1.945 -0.848,-2.647Z"/><g><path d="M31.676,260.87c-0.455,-4.666 -1.316,-9.043 2.383,-18.694c3.951,-10.308 7.684,-19.516 12.266,-25.291c4.581,-5.775 14.014,-28.895 15.413,-35.941c1.398,-7.046 5.631,-29.433 3.977,-39.224c-1.655,-9.791 -8.067,-38.288 -8.886,-51.844c-0.819,-13.555 2.326,-33.926 2.326,-33.926c0,0 -4.538,16.624 2.663,34.994c7.2,18.371 8.853,26.178 11.274,34.895c2.422,8.717 6.371,16.813 6.175,28.11c-0.195,11.297 -4.81,39.966 -8.365,48.554c-3.555,8.587 -17.922,41.389 -18.105,58.818c-0.088,8.418 -20.72,3.65 -21.121,-0.451Z" style="fill:#afc65d;"/><clipPath id="_clip1"><path d="M31.676,260.87c-0.455,-4.666 -1.316,-9.043 2.383,-18.694c3.951,-10.308 7.684,-19.516 12.266,-25.291c4.581,-5.775 14.014,-28.895 15.413,-35.941c1.398,-7.046 5.631,-29.433 3.977,-39.224c-1.655,-9.791 -8.067,-38.288 -8.886,-51.844c-0.819,-13.555 2.326,-33.926 2.326,-33.926c0,0 -4.538,16.624 2.663,34.994c7.2,18.371 8.853,26.178 11.274,34.895c2.422,8.717 6.371,16.813 6.175,28.11c-0.195,11.297 -4.81,39.966 -8.365,48.554c-3.555,8.587 -17.922,41.389 -18.105,58.818c-0.088,8.418 -20.72,3.65 -21.121,-0.451Z"/></clipPath><g clip-path="url(#_clip1)"><path d="M26.51,251.989c1.49,1.447 3.042,2.829 4.616,4.184c0.61,0.525 1.251,1.017 1.929,1.45c0.595,0.38 1.213,0.743 1.878,0.982c4.462,1.607 5.107,-4.668 5.643,-7.468c0.461,-2.415 0.882,-4.839 1.412,-7.24c1.102,-4.996 1.679,-8.051 3.967,-12.468c1.715,-3.311 6.163,-10.658 7.79,-14.152c4.336,-9.311 11.111,-28.65 11.967,-31.214c1.57,-4.706 2.928,-9.196 3.688,-14.166c1.211,-7.916 1.601,-14.297 1.398,-22.25c-0.111,-4.315 -0.952,-11.102 -1.731,-15.529c-0.567,-3.223 -1.223,-4.659 -1.774,-7.194c-2.665,-12.267 -6.796,-25.132 -11.304,-37.339c-0.66,-1.786 -2.592,-3.551 -3.458,-5.247c-0.878,-1.719 -1.848,-3.4 -2.96,-4.978c-1.459,-2.07 -2.674,1.077 -2.937,2.022c-0.882,3.158 -1.659,8.252 -1.908,11.515c-0.51,6.696 -0.963,13.399 -1.256,20.108c-0.294,6.709 -0.453,13.425 -0.506,20.141l-14.372,64.514l-21.462,68.147l19.38,-13.818Z" style="fill:#ccd96b;"/><path d="M57.627,76.544c0,0 2.314,26.563 4.924,36.53c2.609,9.966 5.761,23.883 5.88,36.725c0.119,12.842 -1.527,24.292 -4.287,32.905c-2.759,8.613 -11.149,28.561 -16.29,37.199c-5.141,8.637 -13.368,22.813 -13.446,35.053c-0.077,12.24 -0.372,10.701 -0.372,10.701l-8.35,0.218l6.827,-43.18l13.082,-28.979l11.85,-36.271l-2.39,-44.573l-3.371,-36.994l5.943,0.666Z" style="fill:#afc65d;"/></g><path d="M59.488,261.59c3.515,-3.471 24.468,-24.504 26.007,-25.221c1.539,-0.717 8.868,-10.405 10.25,-10.028c1.382,0.378 -2.688,9.718 -4.237,12.087c-1.549,2.368 -12.633,22.323 -15.095,23.211c-3.914,1.413 -15.452,3.432 -16.925,-0.049Z" style="fill:#afc65d;"/><clipPath id="_clip2"><path d="M59.488,261.59c3.515,-3.471 24.468,-24.504 26.007,-25.221c1.539,-0.717 8.868,-10.405 10.25,-10.028c1.382,0.378 -2.688,9.718 -4.237,12.087c-1.549,2.368 -12.633,22.323 -15.095,23.211c-3.914,1.413 -15.452,3.432 -16.925,-0.049Z"/></clipPath><g clip-path="url(#_clip2)"><path d="M65.47,258.578c7.489,0.259 6.975,0.009 12.18,-5.852c5.205,-5.86 14.269,-21.99 15.798,-26.36c1.529,-4.369 -8.766,1.476 -8.766,1.476c0.108,-0.802 -29.55,30.378 -19.212,30.736Z" style="fill:#ccd96b;"/><path d="M57.678,267.289c6.787,-5.77 16.276,-13.873 21.636,-19.592c5.36,-5.719 14.711,-17.206 16.357,-21.533c1.645,-4.327 -22.424,0.779 -22.424,0.779c0,0 -22.356,46.116 -15.569,40.346Z" style="fill:#afc65d;"/></g><path d="M101.855,261.486c2.493,3.209 10.829,3.297 14.481,0.934c1.331,-0.862 6.238,-22.021 4.866,-33.859c-1.372,-11.838 -5.891,7.563 -9.136,14.264c-3.246,6.701 -10.829,17.866 -10.211,18.661Z" style="fill:#afc65d;"/><clipPath id="_clip3"><path d="M101.855,261.486c2.493,3.209 10.829,3.297 14.481,0.934c1.331,-0.862 6.238,-22.021 4.866,-33.859c-1.372,-11.838 -5.891,7.563 -9.136,14.264c-3.246,6.701 -10.829,17.866 -10.211,18.661Z"/></clipPath><g clip-path="url(#_clip3)"><path d="M106.186,259.956c6.598,1.943 6.349,-3.407 7.847,-7.665c1.42,-4.034 2.948,-8.497 3.637,-13.807c0.719,-5.543 -0.842,-14.675 -0.842,-14.675l-4.419,-1.367l-11.889,37.858c0,0 0.248,-1.939 5.666,-0.344Z" style="fill:#ccd96b;"/><path d="M103.45,266.325c3.015,-4.776 6.685,-10.496 8.183,-14.754c1.42,-4.034 3.844,-10.271 5.545,-15.348c1.702,-5.078 2.53,-13.134 2.53,-13.134l-4.419,-1.367l-17.169,37.858c0,0 2.315,11.521 5.33,6.745Z" style="fill:#afc65d;"/></g><path d="M133.787,262.029c4.479,3.5 10.103,2.429 14.553,1.059c1.282,-0.395 -3.663,-4.232 13.628,-34.801c8.302,-14.677 8.955,-26.29 7.899,-37.529c-0.024,-0.256 -0.044,-0.519 -0.06,-0.788c-0.715,-12.051 -7.795,-42.3 -6.747,-60.801c1.048,-18.501 0.073,-14.539 -0.946,-14.792c-1.019,-0.254 -3.698,5.971 -3.594,20.147c0.104,14.176 3.228,41.017 3.346,50.236c0.117,9.22 -2.758,26.17 -8.85,36.501c-6.091,10.33 -12.798,21.697 -16.52,30.115c-3.723,8.417 -3.346,10.155 -2.709,10.653Z" style="fill:#afc65d;"/><clipPath id="_clip4"><path d="M133.787,262.029c4.479,3.5 10.103,2.429 14.553,1.059c1.282,-0.395 -3.663,-4.232 13.628,-34.801c8.302,-14.677 8.955,-26.29 7.899,-37.529c-0.024,-0.256 -0.044,-0.519 -0.06,-0.788c-0.715,-12.051 -7.795,-42.3 -6.747,-60.801c1.048,-18.501 0.073,-14.539 -0.946,-14.792c-1.019,-0.254 -3.698,5.971 -3.594,20.147c0.104,14.176 3.228,41.017 3.346,50.236c0.117,9.22 -2.758,26.17 -8.85,36.501c-6.091,10.33 -12.798,21.697 -16.52,30.115c-3.723,8.417 -3.346,10.155 -2.709,10.653Z"/></clipPath><g clip-path="url(#_clip4)"><path d="M133.872,256.449c6.851,0.972 7.727,2.428 10.876,-5.302c1.623,-3.983 2.701,-6.884 6.651,-13.207c3.95,-6.322 9.055,-16.209 10.961,-21.749c1.906,-5.541 4.299,-17.565 4.199,-23.847c-0.101,-6.282 -1.409,-19.195 -2.448,-24.18c-1.038,-4.986 -2.583,-14.854 -2.617,-17.675c-0.033,-2.822 -0.851,-15.932 -1.089,-19.433c-0.239,-3.501 0.922,-5.021 -4.339,-6.667c-5.261,-1.647 -28.855,131.114 -22.194,132.06Z" style="fill:#ccd96b;"/><path d="M125.511,266.771c0,0 10.063,4.895 10.355,-0.826c0.522,-10.247 6.425,-19.141 10.61,-26.275c4.185,-7.135 9.416,-13.735 11.908,-20.648c2.493,-6.914 4.906,-15.882 5.485,-22.017c0.58,-6.134 -0.098,-17.434 -0.294,-20.606c-0.195,-3.167 -3.126,-26.704 -3.159,-31.564c-0.033,-4.73 -0.846,-8.509 -0.472,-13.031c0.373,-4.521 1.493,-17.249 1.493,-17.249c-3.841,-0.205 -7.077,-3.105 -9.986,0.552c-15.675,19.711 -19.31,94.492 -25.94,151.664Z" style="fill:#afc65d;"/></g><path d="M30.267,263.741c-0.31,-0.124 -0.596,-0.965 -0.137,-1.466c0.459,-0.501 0.512,-2.599 0.442,-4.702c-0.069,-2.102 0.354,-7.326 0.536,-9.013c0.182,-1.688 0.765,-5.599 2.561,-10.206c1.701,-4.364 3.324,-7.822 4.519,-10.078c1.196,-2.255 2.986,-6.455 5.697,-10.56c3.612,-5.471 4.709,-8.435 7.438,-13.882c2.347,-4.685 3.598,-8.462 4.899,-11.385c1.301,-2.923 2.581,-8.109 3.3,-9.997c0.72,-1.887 2.791,-10.177 3.052,-11.321c0.26,-1.145 1.471,-3.911 1.688,-9.544c0.217,-5.633 0.744,-20.748 -0.501,-26.606c-1.246,-5.857 -2.485,-14.079 -4.192,-19.248c-1.706,-5.169 -3.001,-17.813 -3.023,-21.958c-0.023,-4.145 -0.389,-18.736 0.026,-23.038c0.415,-4.302 2.332,-21.069 4.39,-26.041c2.058,-4.972 5.162,-14.088 8.036,-18.558c2.874,-4.47 5.302,-9.016 6.681,-9.358c1.379,-0.343 1.841,-0.363 1.197,1.604c-0.645,1.968 -1.249,1.083 -5.39,8.25c-4.14,7.167 -7.204,13.622 -8.537,18.029c-1.333,4.408 -3.61,17.667 -3.61,24.719c0,7.052 -0.677,9.469 1.515,16.119c2.191,6.651 3.175,9.905 5.01,15.657c1.835,5.753 8.377,22.667 10.151,29.083c1.773,6.417 4.015,18.403 3.687,26.491c-0.329,8.088 -1.019,17.428 -3.651,29.981c-2.632,12.552 -6.281,20.806 -11.017,32.899c-4.736,12.094 -5.76,12.104 -8.402,21.604c-2.643,9.5 -2.358,14.404 -2.241,17.938c0.117,3.534 1.065,6.848 0.396,7.059c-0.67,0.211 -2.9,0.069 -3.858,-2.241c-0.959,-2.31 -0.419,-10.735 2.006,-19.371c2.425,-8.635 5.853,-17.906 8.701,-24.877c2.847,-6.971 9.099,-21.112 11.196,-31.465c2.098,-10.354 3.248,-14.849 3.924,-25.3c0.676,-10.451 -1.398,-24.082 -3.16,-30.357c-1.745,-6.215 -4.434,-13.814 -6.388,-19.445c-1.955,-5.63 -5.204,-16.784 -5.855,-18.866c-2.188,-6.995 -2.731,-11.341 -2.991,-11.364c-0.195,-0.018 -0.097,8.123 0.327,14.215c0.423,6.092 2.268,17.274 4.324,22.203c2.055,4.928 2.469,11.028 3.233,17.112c0.763,6.085 1.438,20.273 0.746,24.724c-0.693,4.451 -3.059,17.496 -4.823,22.344c-1.763,4.848 -7.896,21.316 -10.868,26.269c-2.972,4.952 -11.317,19.734 -14.12,26.074c-2.803,6.341 -3.451,12.786 -3.807,16.881c-0.356,4.095 0.106,10.395 -0.069,10.84c-0.176,0.446 -2.035,0.554 -3.038,0.152Z" style="fill:#231e1e;"/><path d="M129.436,245.721c0,0 -2.326,3.934 -2.992,7.54c-0.949,5.136 -2.98,7.256 -1.316,9.159c0.391,0.447 2.487,-0.193 3.673,-1.55c1.373,-1.57 2.208,-1.39 2.593,1.002c0.331,2.054 3.747,-9.562 2.316,-8.406c-2.904,2.345 -3.595,4.407 -5.479,4.416c-0.701,0.004 -0.005,-2.531 0.286,-3.896c0.922,-4.327 0.919,-8.265 0.919,-8.265Z" style="fill:#231e1e;"/><path d="M56.557,261.512c-0.239,0.46 1.112,1.83 1.855,2.163c0.743,0.334 0.648,0.485 2.317,-0.645c1.668,-1.13 12.421,-11.618 14.402,-13.62c1.982,-2.001 10.091,-9.627 11.491,-11.32c1.399,-1.693 5.214,-6.989 5.851,-7.64c0.637,-0.651 1.983,-1.953 2.074,-1.864c0.091,0.089 -1.67,4.338 -3.169,6.879c-1.383,2.342 -5.551,9.737 -7.958,13.761c-3.338,5.579 -8.686,11.289 -8.94,11.958c-0.254,0.669 -0.202,2.383 -0.063,2.741c0.139,0.357 3.087,-0.769 4.617,-2.725c1.531,-1.955 7.674,-12.347 8.515,-13.951c0.842,-1.605 4.738,-8.437 5.791,-10.576c1.053,-2.14 5.151,-10.822 6.415,-12.924c1.264,-2.103 2.519,-4.332 4.659,-6.941c1.713,-2.088 2.669,-3.54 3.7,-5.091c1.03,-1.55 2.759,-4.526 3.525,-6.218c0.766,-1.693 1.943,-3.684 3.322,-6.282c0.938,-1.766 2.251,-4.164 3.387,-6.602c0.626,-1.341 -0.41,-6.075 -0.902,-6.066c-0.601,0.012 -0.001,4.68 -2.937,8.743c-1.659,2.296 -3.516,6.222 -5.625,9.927c-2.276,3.997 -2.827,4.562 -4.014,6.023c-1.054,1.299 -2.156,2.595 -3.112,3.908c-0.87,1.196 -2.284,3.372 -3.95,5.172c-0.819,0.885 -5.38,6.517 -8.548,10.001c-3.168,3.485 -6.607,8.002 -8.863,9.903c-2.256,1.901 -6.239,6.592 -8.72,8.703c-2.482,2.111 -8.798,8.363 -10.438,9.497c-1.641,1.134 -4.399,2.543 -4.682,3.086Z" style="fill:#231e1e;"/><path d="M20.714,248.686c-0.191,1.393 -0.438,5.49 0.24,9.722c0.678,4.232 0.735,6.109 1.377,6.751c0.641,0.641 3.38,0.44 4.119,-0.184c0.738,-0.624 0.761,-1.719 0.729,-3.294c-0.042,-2.071 -0.389,-4.015 -1.13,-4.146c-0.871,-0.153 -1.381,1.144 -1.773,2.264c-0.391,1.121 -0.487,2.322 -0.756,2.29c-0.266,-0.032 -0.323,-1.595 -0.336,-3.045c-0.016,-1.956 -0.306,-4.777 -0.558,-7.534c-0.175,-1.917 -0.567,-4.873 -1.008,-4.873c-0.442,0 -0.708,0.617 -0.904,2.049Z" style="fill:#231e1e;"/><path d="M85.495,264.39c-0.002,0.465 0.334,1.093 0.663,0.984c0.596,-0.197 1.454,-1.65 2.112,-2.533c0.659,-0.882 1.093,-1.664 1.473,-1.509c0.381,0.155 -0.576,3.622 0.165,4.22c0.741,0.598 2.146,-1.854 3.071,-2.842c0.926,-0.989 2.844,-4.221 2.764,-4.879c-0.081,-0.659 -0.487,-0.46 -1.299,-0.141c-0.813,0.318 -2.353,1.097 -2.628,0.877c-0.275,-0.22 -0.294,-0.191 -0.181,-1.414c0.113,-1.222 0.397,-2.586 0.765,-3.774c0.368,-1.188 0.529,-1.54 0.767,-2.798c0.239,-1.259 0.613,-3.344 0.327,-3.321c-0.285,0.023 -1.583,1.839 -2.144,3.649c-0.561,1.811 -0.701,2.804 -1.215,3.995c-0.515,1.191 -0.976,2.218 -1.46,3.063c-0.559,0.973 -0.926,1.912 -1.349,2.642c-0.424,0.73 -1.825,2.437 -1.831,3.781Z" style="fill:#231e1e;"/><path d="M99.903,262.537c0.568,0.954 1.22,2.292 4.567,-1.667c3.347,-3.959 4.711,-9.191 5.401,-10.564c0.691,-1.374 4.309,-9.797 4.748,-10.754c0.44,-0.956 3.494,-8.889 4.186,-8.735c0.691,0.154 0.919,6.262 0.636,9.371c-0.283,3.11 -1.02,6.629 -1.613,9.502c-0.593,2.873 -1.581,6 -1.839,7.597c-0.257,1.597 -2.244,3.65 -1.484,5.744c0.76,2.093 1.803,0.406 2.313,0c0.511,-0.407 3.805,-5.169 4.073,-9.614c0.267,-4.445 1.6,-9.085 1.966,-12.015c0.367,-2.931 1.056,-8.74 1.109,-10.822c0.053,-2.081 0.313,-8.719 0.313,-10.955c0,-2.236 0.125,-6.71 -0.199,-8.454c-0.323,-1.745 -1.779,-9.206 -1.779,-10.305c0,-1.1 -1.519,-6.514 -1.773,-7.555c-0.254,-1.042 -2.759,-6.042 -2.759,-6.042c0,0 0.381,5.005 0.008,9.541c-0.373,4.536 0.695,14.848 0.207,18.791c-0.488,3.943 -1.485,12.88 -4.071,19.259c-2.586,6.379 -4.328,11.261 -7.711,16.338c-3.383,5.077 -6.939,10.264 -6.299,11.339Z" style="fill:#231e1e;"/><path d="M131.057,257.917c-0.466,2.995 0.134,6.222 2.064,6.375c0.948,0.075 1.66,0.013 1.729,-0.853c0.069,-0.866 -0.332,-4.536 0.609,-6.987c0.941,-2.451 3.464,-7.037 4.213,-8.683c0.749,-1.647 3.393,-6.393 4.512,-7.992c1.119,-1.599 2.986,-4.677 4.054,-6.128c1.069,-1.45 3.307,-4.934 4.013,-6.484c0.707,-1.55 5.2,-9.922 5.812,-11.978c0.613,-2.056 3.429,-11.217 3.981,-15.873c0.552,-4.657 0.773,-11.454 0.774,-15.661c0.001,-4.207 -0.979,-14.037 -1.33,-16.767c-0.352,-2.73 -1.092,-7.77 -1.092,-10.557c0,-2.788 -0.421,-5.929 -0.622,-8.677c-0.201,-2.747 -0.59,-10.972 -0.601,-12.978c-0.012,-2.005 0.136,-5.752 0.3,-7.777c0.165,-2.025 1.359,-10.099 1.905,-10.047c0.574,0.055 0.29,6.165 0.312,11.232c0.013,3.265 -0.036,7.139 0.184,12.29c0.221,5.15 0.626,12.767 1.625,16.92c0.998,4.153 3,16.339 3.733,20.324c0.733,3.984 1.918,13.276 1.631,17.972c-0.388,6.343 0.145,12.083 -4.428,23.289c-2.319,5.685 -8.041,18.065 -10.425,21.544c-2.383,3.479 -5.446,9.628 -6.516,13.244c-1.07,3.616 -1.597,6.646 -1.427,8.475c0.169,1.829 0.262,2.153 1.038,2.495c0.777,0.341 2.507,0.195 2.744,-1.604c0.236,-1.8 0.066,-3.537 0.21,-5.627c0.144,-2.091 3.57,-11.437 4.824,-13.052c1.254,-1.614 7.627,-14.28 9.006,-17.187c1.379,-2.907 5.169,-10.99 6.092,-16.807c0.923,-5.818 2.527,-18.604 -0.178,-32.869c-2.706,-14.265 -4.273,-20.743 -5.009,-28.481c-0.737,-7.739 -1.33,-20.594 -1.439,-29.362c-0.109,-8.768 2.307,-12.266 3.121,-15.156c0.813,-2.89 2.577,-8.598 1.468,-9.107c-1.108,-0.508 -3.395,8.203 -4.51,11.169c-1.114,2.967 -2.674,6.156 -3.851,9.114c-1.17,2.943 -1.375,5.496 -1.879,9.264c-0.505,3.769 -0.233,18.951 0.056,23.116c0.289,4.166 1.169,17.408 1.758,22.887c0.588,5.479 0.978,13.625 0.779,18.192c-0.191,4.359 -1.522,12.737 -2.099,14.934c-0.577,2.198 -4.047,12.464 -6.07,16.742c-2.023,4.279 -7.44,11.699 -10.051,15.998c-2.61,4.298 -6.548,12.672 -7.966,14.947c-1.419,2.274 -2.521,2.741 -3.054,6.171Z" style="fill:#231e1e;"/></g></svg>